<?xml version="1.0" encoding="UTF-8"?>
<svg width="607px" height="150px" viewBox="0 0 607 150" version="1.1" xmlns="http://www.w3.org/2000/svg" xmlns:xlink="http://www.w3.org/1999/xlink">
    <!-- Generator: Sketch 51.3 (57544) - http://www.bohemiancoding.com/sketch -->
    <title>hbp</title>
    <desc>Created with Sketch.</desc>
    <defs></defs>
    <g id="Page-1" stroke="none" stroke-width="1" fill="none" fill-rule="evenodd">
        <path d="M12,139 L12,11 L25.9559471,11 L25.9559471,56.768546 L29.9030837,56.768546 L29.9030837,11 L44,11 L44,139 L29.9030837,139 L29.9030837,87.3442136 L25.9559471,87.3442136 L25.9559471,139 L12,139 Z M67.6963563,116.970326 L62.7368421,116.970326 L62.0283401,139 L48,139 L54.5890688,11 L76.1983806,11 L83,139 L68.5465587,139 L67.6963563,116.970326 Z M64,86 L67,86 C66.775,75.1857708 66.25,48.055336 65.95,38 L65.275,38 C64.975,50.9011858 64.225,74.8063241 64,86 Z M86,139 L86,11 L99.8857143,11 L99.8857143,110.133531 L113,110.133531 L111.667532,139 L86,139 Z M135.696356,116.970326 L130.736842,116.970326 L130.02834,139 L116,139 L122.589069,11 L144.198381,11 L151,139 L136.546559,139 L135.696356,116.970326 Z M131,86 L134,86 C133.775,75.1857708 133.25,48.055336 132.95,38 L132.275,38 C131.975,50.9011858 131.225,74.8063241 131,86 Z M154,139 L154,11 L167.885714,11 L167.885714,110.133531 L181,110.133531 L179.667532,139 L154,139 Z M184,139 L184,11 L201.263158,11 C209.754386,11 214.807018,21.2551929 214.807018,44.0445104 C214.807018,60.1869436 212.280702,66.8338279 208.701754,70.2522255 C212.280702,73.6706231 216,81.6468843 216,100.448071 C216,127.225519 210.877193,139 200.491228,139 L184,139 Z M198,60 L199.358491,60 C201.471698,60 202,56.952381 202,48 C202,39.2380952 201.54717,36 199.283019,36 L198,36 L198,60 Z M198,83 L198,114 L198.982456,114 C201.298246,114 202,111.164634 202,98.6890244 C202,84.7012195 201.22807,83 198.842105,83 L198,83 Z M220,11 L233.955947,11 L233.955947,104.489826 C233.955947,110.392442 234.237885,114.771802 236,114.771802 C237.762115,114.771802 237.903084,110.582849 237.903084,104.489826 L237.903084,11 L252,11 L252,101.0625 C252,133.050872 244.740088,142 235.577093,142 C225.779736,142 220,131.337209 220,100.681686 L220,11 Z M258,139 L258,11 L273.051392,11 C285.276231,11 291,25.8130564 291,72.5311573 C291,121.908012 285.205567,139 273.122056,139 L258,139 Z M272,37 L272,113 L272.714286,113 C275.785714,113 276,108.226131 276,71.1809045 C276,40.2462312 275.428571,37 272.785714,37 L272,37 Z M312.696356,116.970326 L307.736842,116.970326 L307.02834,139 L293,139 L299.589069,11 L321.198381,11 L328,139 L313.546559,139 L312.696356,116.970326 Z M309,86 L312,86 C311.775,75.1857708 311.25,48.055336 310.95,38 L310.275,38 C309.975,50.9011858 309.225,74.8063241 309,86 Z M331,139 L331,11 L348.318486,11 C357.227171,11 363,22.5845697 363,50.1216617 C363,79.7477745 357.939866,91.5222552 348.104677,91.5222552 L344.89755,91.5222552 L344.89755,139 L331,139 Z M345,37 L345,64 L346.052632,64 C348.438596,64 349,60.8125 349,50.125 C349,39.4375 348.017544,37 345.912281,37 L345,37 Z M394.066667,59.4272997 L394.066667,87.7240356 L380.819753,87.7240356 L380.819753,110.893175 L396,110.893175 L394.424691,139 L367,139 L367,11 L394.639506,11 L394.639506,39.2967359 L380.819753,39.2967359 L380.819753,59.4272997 L394.066667,59.4272997 Z M399,100.827881 L412.795556,100.827881 C412.795556,112.26458 413.364444,116.076814 415,116.076814 C416.635556,116.076814 417.062222,112.645804 417.062222,107.308677 C417.062222,100.256046 415.853333,96.2532006 410.804444,88.2475107 C402.555556,75.0953058 399.497778,64.6116643 399.497778,46.3129445 C399.497778,23.0583215 404.333333,8 415,8 C426.235556,8 430.36,24.3926031 430.36,48.9815078 L417.062222,48.9815078 C417.062222,37.544808 416.635556,33.9231863 415.071111,33.9231863 C413.862222,33.9231863 413.364444,36.2105263 413.364444,41.1664296 C413.364444,46.3129445 413.791111,49.7439545 418.413333,56.9871977 C427.728889,71.4736842 431,81.3854908 431,102.162162 C431,125.416785 426.591111,142 415.213333,142 C402.982222,142 399.142222,127.13229 399,100.827881 Z M441.117647,139 L441.117647,39.2967359 L433,39.2967359 L433,11 L463,11 L463,39.2967359 L455.023529,39.2967359 L455.023529,139 L441.117647,139 Z M474,139 L461,139 L461,99 L474,99 L474,139 Z M496.907725,94.4700855 L511,94.4700855 C511,120.811966 507.530043,142 494.854077,142 C482.744635,142 478,125.965812 478,74.4273504 C478,20.5982906 484.869099,8 495.208155,8 C507.600858,8 511,28.6153846 511,52.2849003 L496.83691,52.2849003 C496.83691,39.8774929 496.766094,35.2962963 494.995708,35.2962963 C493.296137,35.2962963 493.012876,40.2592593 493.012876,73.6638177 C493.012876,108.786325 493.083691,114.703704 494.995708,114.703704 C496.766094,114.703704 496.907725,108.022792 496.907725,94.4700855 Z M531,8 C543.504132,8 548,30.1109531 548,74.5234708 C548,120.460882 543.57438,142 530.508264,142 C518.285124,142 514,119.1266 514,73.3798009 C514,30.4921764 518.285124,8 531,8 Z M532,35 C530.466667,35 530,38.2361446 530,73.2626506 C530,109.812048 530.266667,114 532,114 C533.8,114 534,109.621687 534,73.2626506 C534,38.426506 533.8,35 532,35 Z M0,0 L607,0 L607,150 L0,150 L0,0 Z M581.108247,139 L594,139 L594,11 L575.613402,11 C574.556701,35.6884273 574.274914,49.7418398 573.5,70.4421365 L573.006873,70.4421365 C572.654639,54.6795252 571.597938,23.7240356 571.175258,11 L553,11 L553,139 L564.764605,139 L564.764605,106.525223 C564.764605,84.305638 564.553265,59.6172107 564.412371,44.4243323 L564.905498,44.4243323 C565.891753,71.9614243 567.230241,114.501484 567.934708,139 L577.726804,139 C578.360825,122.477745 579.840206,74.810089 580.82646,44.6142433 L581.319588,44.6142433 C581.178694,61.3264095 581.108247,90.1928783 581.108247,107.284866 L581.108247,139 Z" id="hbp" fill="#006341"></path>
    </g>
</svg>