<svg width="607" height="150" viewBox="0 0 607 150" xmlns="http://www.w3.org/2000/svg"><title>hbp</title><path d="M12 139V11h13.956v45.769h3.947V11H44v128H29.903V87.344h-3.947V139H12zm55.696-22.03h-4.96L62.029 139H48l6.59-128h21.608L83 139H68.547l-.85-22.03zM64 86h3c-.225-10.814-.75-37.945-1.05-48h-.675c-.3 12.901-1.05 36.806-1.275 48zm22 53V11h13.886v99.134H113L111.668 139H86zm49.696-22.03h-4.96l-.708 22.03H116l6.59-128h21.608L151 139h-14.453l-.85-22.03zM131 86h3c-.225-10.814-.75-37.945-1.05-48h-.675c-.3 12.901-1.05 36.806-1.275 48zm23 53V11h13.886v99.134H181L179.668 139H154zm30 0V11h17.263c8.491 0 13.544 10.255 13.544 33.045 0 16.142-2.526 22.789-6.105 26.207C212.28 73.671 216 81.647 216 100.448c0 26.778-5.123 38.552-15.509 38.552H184zm14-79h1.358c2.114 0 2.642-3.048 2.642-12 0-8.762-.453-12-2.717-12H198v24zm0 23v31h.982c2.316 0 3.018-2.835 3.018-15.311C202 84.701 201.228 83 198.842 83H198zm22-72h13.956v93.49c0 5.902.282 10.282 2.044 10.282s1.903-4.19 1.903-10.282V11H252v90.063C252 133.05 244.74 142 235.577 142 225.78 142 220 131.337 220 100.682V11zm38 128V11h15.051C285.276 11 291 25.813 291 72.531c0 49.377-5.794 66.469-17.878 66.469H258zm14-102v76h.714c3.072 0 3.286-4.774 3.286-41.82 0-30.934-.571-34.18-3.214-34.18H272zm40.696 79.97h-4.96l-.708 22.03H293l6.59-128h21.608L328 139h-14.453l-.85-22.03zM309 86h3c-.225-10.814-.75-37.945-1.05-48h-.675c-.3 12.901-1.05 36.806-1.275 48zm22 53V11h17.318C357.228 11 363 22.585 363 50.122c0 29.626-5.06 41.4-14.895 41.4h-3.207V139H331zm14-102v27h1.053c2.386 0 2.947-3.188 2.947-13.875C349 39.437 348.018 37 345.912 37H345zm49.067 22.427v28.297H380.82v23.17H396L394.425 139H367V11h27.64v28.297h-13.82v20.13h13.247zm4.933 41.4h13.796c0 11.438.568 15.25 2.204 15.25 1.636 0 2.062-3.431 2.062-8.768 0-7.053-1.209-11.056-6.258-19.061-8.248-13.153-11.306-23.636-11.306-41.935C399.498 23.058 404.333 8 415 8c11.236 0 15.36 16.393 15.36 40.982h-13.298c0-11.437-.426-15.059-1.99-15.059-1.21 0-1.708 2.288-1.708 7.243 0 5.147.427 8.578 5.05 15.821C427.728 71.474 431 81.385 431 102.162c0 23.255-4.409 39.838-15.787 39.838-12.23 0-16.07-14.868-16.213-41.172zM441.118 139V39.297H433V11h30v28.297h-7.976V139h-13.906zM474 139h-13V99h13v40zm22.908-44.53H511c0 26.342-3.47 47.53-16.146 47.53C482.744 142 478 125.966 478 74.427 478 20.598 484.87 8 495.208 8 507.601 8 511 28.615 511 52.285h-14.163c0-12.408-.07-16.989-1.841-16.989-1.7 0-1.983 4.963-1.983 38.368 0 35.122.07 41.04 1.983 41.04 1.77 0 1.912-6.681 1.912-20.234zM531 8c12.504 0 17 22.111 17 66.523 0 45.938-4.426 67.477-17.492 67.477C518.285 142 514 119.127 514 73.38 514 30.492 518.285 8 531 8zm1 27c-1.533 0-2 3.236-2 38.263 0 36.549.267 40.737 2 40.737 1.8 0 2-4.378 2-40.737C534 38.427 533.8 35 532 35zM0 0h607v150H0V0zm581.108 139H594V11h-18.387c-1.056 24.688-1.338 38.742-2.113 59.442h-.493c-.352-15.762-1.41-46.718-1.832-59.442H553v128h11.765v-32.475c0-22.22-.212-46.908-.353-62.1h.493c.987 27.536 2.325 70.076 3.03 94.575h9.792c.634-16.522 2.113-64.19 3.1-94.386h.493c-.141 16.712-.212 45.579-.212 62.67V139z" fill="#006341" fill-rule="evenodd"/></svg>