<svg width="448" height="88" viewBox="0 0 448 88" xmlns="http://www.w3.org/2000/svg"><title>hbp2</title><path d="M.596.427h447v87h-447v-87zm7 5.604c.655 3.422 1.584 8.656 1.584 19.426v36.84c0 11.272-.874 15.903-1.584 19.425h9.282c-.71-4.428-1.529-9.058-1.529-21.036V48.205h17.527V61.49c0 12.078-.71 15.601-1.583 20.231h9.337c-.874-4.428-1.584-8.153-1.584-20.634V26.162c0-11.576.655-15.2 1.584-20.131h-9.337c.71 4.026 1.583 8.857 1.583 19.225v13.387H15.35v-15.3c0-9.562.929-13.79 1.638-17.312h-9.39zm58.641-.1h-.327L50.13 63.704c-3.385 12.38-4.586 15.098-5.951 18.017h9.992c-.219-5.938 1.365-12.48 2.074-15.299l2.075-8.153h14.36l2.403 10.166c1.474 6.14 1.692 9.965 1.692 13.286l9.72-.2c-1.53-3.826-3.44-8.657-6.389-20.434L66.237 5.93zm-.436 23.25l4.75 20.232h-9.938l5.188-20.232zm47.939 38.35c-4.368 3.22-8.463 5.334-15.78 6.542l.219-49.22c.054-11.172.764-14.595 1.583-18.52H90.59c.656 3.321 1.42 6.945 1.42 17.816v33.316c0 16.507-.6 19.426-1.638 24.257h19.984l3.385-14.192zm23.042-61.6h-.328l-15.78 57.774c-3.385 12.38-4.586 15.098-5.951 18.017h9.992c-.219-5.938 1.365-12.48 2.075-15.299l2.074-8.153h14.36l2.403 10.166c1.474 6.14 1.693 9.965 1.693 13.286l9.718-.2c-1.528-3.826-3.44-8.657-6.388-20.434L136.782 5.93zm-.437 23.25l4.75 20.232h-9.937l5.187-20.232zm47.94 38.35c-4.369 3.22-8.464 5.334-15.78 6.542l.218-49.22c.055-11.172.764-14.595 1.583-18.52h-9.172c.655 3.321 1.42 6.945 1.42 17.816v33.316c0 16.507-.601 19.426-1.639 24.257H180.9l3.385-14.192zm3.494-61.299c.546 2.517 1.42 6.14 1.42 19.829v33.92c0 4.429-.164 13.387-1.584 21.54l9.282.201c2.675.101 5.733-1.207 8.026-2.717 3.276-2.114 6.99-9.764 6.99-18.118 0-8.455-3.386-15.199-7.372-19.627 2.13-2.92 5.46-7.348 5.46-16.306 0-6.845-2.839-18.722-13.05-18.722h-9.172zm7.48 6.442c4.423.705 8.026 4.328 8.026 12.884 0 8.757-3.603 13.185-8.026 15.3V12.673zm0 29.592c8.08 3.624 9.774 12.481 9.774 18.118 0 2.516-.328 14.897-9.774 14.595V42.266zm20.039-36.034c.71 3.221 1.31 5.838 1.31 17.313v29.793c0 17.212 4.86 29.089 13.323 29.089 5.842 0 10.592-5.435 12.995-8.153.054 2.214 0 3.12-.273 7.448h7.261c-1.092-10.166-1.092-14.594-1.092-19.828V21.632c0-9.864.437-12.179 1.092-15.4h-8.736c1.475 5.737 1.475 13.89 1.475 17.313v29.793c0 4.73-.11 6.04-.328 7.55-1.147 7.045-4.969 13.185-9.391 13.185-2.621 0-7.372-2.718-9.392-11.877-.6-2.819-.819-5.637-.819-10.368V24.35c0-10.468.382-13.186 1.31-18.118h-8.735zm42.588 52.541c0 13.89-.764 18.219-1.638 22.95h9.883c13.159 0 21.294-17.414 21.294-37.041 0-7.348-1.092-15.4-4.095-22.547-6.224-14.695-15.288-16.003-22.823-16.003-1.802 0-2.84.2-4.259.402.492 3.523 1.638 9.864 1.638 20.332v31.907zm6.115-31.806c0-3.724 0-9.16.328-13.79 12.995 3.322 15.889 19.93 15.889 30.498 0 11.877-3.713 28.485-15.889 30.7-.328-6.04-.328-8.858-.328-17.413V26.967zm44.61-21.037h-.328l-15.78 57.775c-3.385 12.38-4.586 15.098-5.951 18.017h9.991c-.218-5.938 1.366-12.48 2.075-15.299l2.075-8.153h14.36l2.403 10.166c1.474 6.14 1.692 9.965 1.692 13.286l9.72-.2c-1.53-3.826-3.44-8.657-6.39-20.434L308.61 5.93zm-.438 23.251l4.75 20.232h-9.937l5.187-20.232zm26.154 27.881c0 12.481-1.092 19.426-1.856 24.66h9.555c-.764-5.837-1.583-15.5-1.583-21.338v-12.38l1.583.2c5.187.705 13.432-4.327 13.432-20.835 0-12.783-5.57-21.137-13.814-21.137h-8.9c.655 2.819 1.583 6.845 1.583 20.232v30.598zm6.116-37.342c0-2.517.109-5.939.218-8.455 1.966.403 3.986 1.006 5.733 4.328 1.856 3.523 2.62 8.254 2.62 12.481 0 13.588-5.95 15.601-8.571 16.407V19.72zm18.51-13.488c1.146 6.543 1.528 13.991 1.528 19.124v36.94c0 9.663-.819 14.998-1.529 19.426h21.458l3.003-12.581c-8.681 5.435-11.575 5.435-16.817 5.435v-27.58c3.113.404 4.641.806 9.337 3.323l3.494-10.57h-12.83V13.38c4.313-.302 6.715.704 11.302 4.529l3.112-11.676h-22.059zm46.628 2.819c-1.965-1.51-4.586-3.624-8.299-3.624-6.716 0-12.121 9.864-12.121 21.842 0 11.474 3.494 15.5 12.23 25.566 1.201 1.409 3.44 4.73 3.44 9.965 0 5.334-2.566 10.568-6.115 10.568-3.768 0-6.17-5.234-8.027-9.16v16.005c1.911 1.006 3.822 2.013 7.044 2.013 8.572 0 13.869-9.06 13.869-21.54 0-7.247-1.639-13.186-7.535-19.426-5.133-5.436-8.573-9.16-8.573-16.306 0-5.939 2.785-10.166 6.334-10.166 3.658 0 5.951 3.321 7.753 5.938V9.051zm5.952-2.718l-2.184 12.682c7.917-5.234 10.32-5.234 13.05-5.133v48.616c0 8.958-.547 14.494-1.147 19.224h8.354c-.874-5.837-1.147-11.977-1.147-18.017V13.882c4.75 0 6.224.704 10.702 4.026L442 6.333h-30.467z" fill="#006341" fill-rule="evenodd"/></svg>