<svg width="349" height="176" viewBox="0 0 349 176" fill="none" xmlns="http://www.w3.org/2000/svg"><path d="M66.33 12.025c1.06-6.52 5.18-12.46 7-12 1.07.27.38 2.5 2 6 2.47 5.33 6.57 5.53 7 9 .36 2.85-2.3 3.65-4 8-1.42 3.62-.88 6.4 0 13 0 0 .43 3.21 2 18 1.43 13.46 1.12 18.4 1 20-.42 5.71-.63 8.56-2 12-4.39 11-15.19 15.77-18 17a34.678 34.678 0 0 1-18 3c-4.41-.48-13.6-1.49-19-9-6.08-8.45-2.91-19-2-22 2.5-8.31 8.36-14.37 9-14 .34.2-.85 2.21-2 6-1.37 4.55-3.54 11.71-1 17 2.54 5.29 8.6 6.81 13 8 2.15.58 17.47 4.48 27-5a24.26 24.26 0 0 0 6-11c1.45-5 1.21-9 0-18-2.15-16-3.22-24-5-30-2.16-7.28-3.89-10.49-3-16z" fill="#006341"/><path d="M84.33 24.025c-3.09 1.74-2.86 9.19-1 14a15.26 15.26 0 0 0 4 6c3.81 3.44 6.82 2.38 12 5a25.345 25.345 0 0 1 9 8c5.46 7.4 5.08 15.09 6 15 .92-.09 2.05-7.68 0-16-.39-1.59-2.22-8.57-9-17-5.05-6.29-16.28-17.65-21-15z" fill="#006341"/><path d="M173.33 96.025a59.783 59.783 0 0 1-14 1c-6.08-.31-8.83-1.42-10-2a19.706 19.706 0 0 1-7.06-5.41 20.064 20.064 0 0 1-3.94-10.59c-1.58-14-2.32-31-3-31-.68 0 0 15.09-8 30a48.694 48.694 0 0 1-7 10 49.377 49.377 0 0 1-15 11 55.762 55.762 0 0 1-15 5c-9.52 1.71-20.69 1.08-21-1-.26-1.72 7.09-3 22-10 13.93-6.58 18.61-10.73 20-12a59.521 59.521 0 0 0 11-14c1.56-2.73 4.41-8.16 8-23 4.44-18.35 4.66-28.88 7-29 1.62-.08 3.08 4.85 4 8 3.41 11.71 3.67 23.57 4 43 .11 6.23.19 11.58 4 15 2.71 2.43 6.11 2.82 9 3 13.93.87 34-1.85 34-6 0-3.37-13.26-5.69-15-6-4.3-.76-7.88-1.39-12 0-6.32 2.13-9.38 7.49-10 7-.62-.49 2-4.83 5-9 5.1-7.07 7.65-10.6 12-12 4-1.3 7.5-.16 14 2s7.21 3.75 17 8a61.796 61.796 0 0 0 11 4c8.73 1.88 13.38-2.14 15 0 2 2.61-2.21 11.38-9 14a8.577 8.577 0 0 1-2.07.54c-3.13.397-6.304.265-9.39-.39-3.46-.77-4.9.7-17.54 4.85-7.79 2.56-12 3.92-18 5zM250.33 94.025c-1.56-1.33 5-8.74 10-23 2.67-7.59 1.86-8.47 5-17 1.79-4.85 2.89-11.68 8-17 7.71-8 16.92-18.11 19-17 1.34.71.36 3.3-3 20-2.51 12.49-2.54 13.81-4 18-1.64 4.68-3.55 10.15-8 16-3.73 4.89-8.48 8.26-18 15-7.72 5.46-8.66 5.29-9 5z" fill="#006341"/><path d="M322.33 48.025c-3.95 3.18-6.25 6.12-10 11-11.48 14.91-11 21.59-19 28-2.75 2.2-8.17 3.8-19 7-3.6 1.06-6.87 1.94-10.82 2.87-12.41 2.93-21.83 5.5-33.18 6.13-8.87.49-24.19 0-23 0a11.53 11.53 0 0 1-3 4c-2.85 2.4-6 2.48-6 3 .07 1.21 10 1 10 1 19-1.14 28-3 28-3 31.23-6.46 26.38-4.12 36-7 13.62-4.08 23.22-8.74 32-13a77.7 77.7 0 0 0 9-5 64.663 64.663 0 0 0 15-13c4.14-5 3-5.61 10-18 5.68-10 10.46-16.67 10-17-.13-.09-23.72 10.31-26 13zM213.33 174.025c-.5-.56.62-1.75 2-6a46.39 46.39 0 0 0 2-10c.88-6.77 8.31-23.59 23-37 11.13-10.16 24.88-16.48 26-15 .46.61-1.35 2.37-4 6-4.57 6.27-6.17 10.6-10 19-6.07 13.3-9.11 20-12 24-9.88 13.84-25.42 20.74-27 19zM248.33 152.025c.72-3.9 3-4.38 6-11a51.115 51.115 0 0 0 3-9c.83-2.92 6.06-21.24 17-24 8.66-2.18 17.31 6.34 19 8 10.18 10 9.21 24 9 27a38.628 38.628 0 0 1-10 23c-2.82 3.17-6.57 7.38-13 9a24.183 24.183 0 0 1-14-1 24.508 24.508 0 0 1-12-8c-1.57-2-6.16-7.69-5-14z" fill="#006341"/><path d="M319.33 151.025c4 .64 12.61 2 19-3 6.13-4.82 6.7-12.78 7-17 1-14.17-8-24-9-25-5.91-6.21-12.56-8.13-19-10-4.84-1.4-8.59-2.43-13-1-4.41 1.43-10.07 5.25-10 10 .09 5.89 7.66 6.42 12 15 5.78 11.43-2.62 21.94 4 28 2.06 1.89 4.39 2.26 9 3z" fill="#006341"/><path d="M295.33 146.025c1.57-.37 1.19-11.23-3-21-1-2.34-4.44-10.37-8-10a3.895 3.895 0 0 0-3 3c-.54 2.54 2.08 5.06 3 6 8.22 8.42 9.21 22.42 11 22zM339.33 122.025c1.7-1.22-4.75-10.44-10-16-7.28-7.71-11.08-7.18-12-7-.23 0-2.64.56-3 2-.46 1.83 2.51 4.34 4 5 15.65 7 20.52 16.35 21 16z" fill="#fff"/><path d="M15.352 149.44l-6.485-.214H3.926c-.677 0-1.244-.111-1.7-.332-.455-.235-.683-.521-.683-.86 0-.625.098-1.061.293-1.308.443.13.911.195 1.406.195a6.13 6.13 0 0 0 1.211-.098c.326-.065.612-.202.86-.41.572-.469.859-1.282.859-2.441v-19.903c0-1.211-.736-1.966-2.207-2.265-.938-.196-1.543-.404-1.817-.625-.26-.235-.39-.489-.39-.762 0-.599.104-1.003.312-1.211.235.065.456.098.664.098h5.801c.6 0 1.406-.033 2.422-.098 1.029-.065 2.454-.098 4.277-.098 1.836 0 3.477.17 4.922.508 1.459.339 2.657.814 3.594 1.426 1.797 1.185 2.695 2.852 2.695 5 0 2.448-1.028 4.427-3.086 5.937-.768.56-1.75 1.042-2.949 1.446 3.841.312 6.309 1.784 7.402 4.414.339.846.508 1.855.508 3.027a7.62 7.62 0 0 1-.8 3.379c-.534 1.081-1.342 2.005-2.422 2.774-2.24 1.614-5.489 2.421-9.746 2.421zm-4.63-16.796l2.95.019h2.09c.82 0 1.62-.143 2.402-.43.781-.299 1.432-.696 1.953-1.191 1.068-1.016 1.602-2.318 1.602-3.906 0-1.81-.443-3.138-1.328-3.985-1.042-1.028-2.845-1.543-5.41-1.543-1.745 0-2.833.163-3.262.489-.417.325-.69.709-.82 1.152-.118.43-.176.996-.176 1.699v7.696zm4.708 2.597c-2.123 0-3.692.013-4.707.039v9.258c0 1.315.859 2.051 2.578 2.207.534.039 1.276.059 2.226.059s1.947-.098 2.989-.293c1.041-.196 1.94-.528 2.695-.996 1.576-.99 2.363-2.559 2.363-4.707 0-3.711-2.715-5.567-8.144-5.567zm18.418-3.379c0-.742-.059-1.334-.176-1.777-.104-.456-.326-.684-.664-.684a1.77 1.77 0 0 0-.586.078l-.469.196c-.091.026-.202-.026-.332-.156-.247-.274-.371-.521-.371-.743 0-.234.072-.475.215-.722.156-.261.384-.554.683-.879a5.642 5.642 0 0 1 1.055-.86c.886-.586 1.686-.878 2.402-.878.717 0 1.224.123 1.524.371.3.247.527.573.684.976.26.651.39 1.634.39 2.949v12.227c0 2.2.664 3.431 1.992 3.691a7.98 7.98 0 0 0 3.203-.097 11.372 11.372 0 0 0 1.817-.567 11.232 11.232 0 0 0 2.93-1.738v-11.387c0-1.237-.222-1.998-.665-2.285-.182-.117-.423-.176-.722-.176-.3 0-.54.046-.723.137-.17.091-.312.156-.43.195-.104.039-.195.039-.273 0a1.712 1.712 0 0 1-.254-.214c-.195-.222-.293-.443-.293-.665 0-.221.078-.455.235-.703.169-.26.436-.553.8-.879a7.1 7.1 0 0 1 1.25-.918c1.055-.611 2.11-.917 3.164-.917 1.276 0 2.006.904 2.188 2.714.052.508.078 1.036.078 1.582v11.563c0 2.005.078 3.255.234 3.75.157.495.345.82.567.976.221.144.495.215.82.215.326 0 .593-.052.8-.156l.587-.254c.17-.039.319.039.449.235.273.403.313.768.117 1.093-.195.326-.501.638-.918.938-.403.299-.86.56-1.367.781-2.253.99-3.854.97-4.805-.059-.494-.533-.774-1.38-.84-2.539-1.913 1.472-3.873 2.487-5.878 3.047a8.842 8.842 0 0 1-2.305.293 8.4 8.4 0 0 1-2.344-.332 5.096 5.096 0 0 1-1.972-1.074c-1.198-1.055-1.797-2.682-1.797-4.883v-11.465zm40.937 14.942c-2.018 1.888-4.238 2.832-6.66 2.832-2.67 0-4.844-.912-6.523-2.735-1.823-2.005-2.735-4.772-2.735-8.3 0-3.972 1.263-7.201 3.79-9.688 2.356-2.318 5.142-3.476 8.359-3.476 1.289 0 2.526.214 3.71.644v-5.644c0-.912-.09-1.491-.273-1.739-.3-.416-.788-.625-1.465-.625-.286 0-.573.033-.86.098-.272.052-.468.052-.585 0a.789.789 0 0 1-.254-.254c-.26-.43.065-.977.977-1.641 1.432-1.054 2.845-1.582 4.238-1.582 1.471 0 2.311.801 2.52 2.403.052.481.078.989.078 1.523v22.676c0 2.005.078 3.255.234 3.75.156.495.338.82.547.976.221.144.495.215.82.215.326 0 .593-.052.8-.156l.587-.254c.17-.039.319.039.45.235.272.403.312.768.116 1.093-.195.326-.488.638-.879.938-.39.299-.826.56-1.308.781-2.11.951-3.685.97-4.727.059-.508-.443-.827-1.153-.957-2.129zm-.058-16.758c-1.276-.977-2.76-1.465-4.454-1.465-2.03 0-3.678.749-4.941 2.246-1.354 1.602-2.031 3.783-2.031 6.543 0 4.388 1.25 7.096 3.75 8.125.781.313 1.536.469 2.265.469.743 0 1.361-.059 1.856-.176a7.48 7.48 0 0 0 1.387-.469c.859-.39 1.582-.866 2.168-1.425v-13.848zm24.941 16.719c-1.901 1.901-4.2 2.851-6.895 2.851-2.083 0-3.75-.599-5-1.797-1.263-1.211-1.894-2.78-1.894-4.707 0-2.396 1.068-4.192 3.203-5.39 1.927-1.094 4.642-1.641 8.145-1.641h2.441c.013-.495.02-.977.02-1.445v-1.465c0-1.745-.254-2.975-.762-3.692-.573-.807-1.55-1.21-2.93-1.21-3.164 0-4.792 1.132-4.883 3.398a6.14 6.14 0 0 0 .02.879c-.26.208-.703.312-1.328.312-.612 0-1.062-.071-1.348-.214a2.407 2.407 0 0 1-.723-.586c-.442-.508-.664-1.153-.664-1.934 0-.794.228-1.484.684-2.07.469-.599 1.1-1.088 1.894-1.465 1.55-.768 3.38-1.152 5.489-1.152 2.11 0 3.691.208 4.746.625 1.068.403 1.914.944 2.539 1.621 1.107 1.198 1.66 2.806 1.66 4.824l-.195 9.375c0 1.706.078 2.786.234 3.242.169.456.365.762.586.918.234.156.514.234.84.234.338 0 .612-.052.82-.156l.547-.254c.182-.065.339.013.469.235.143.208.215.397.215.566 0 .156-.072.365-.215.625-.13.26-.384.54-.762.84-.364.286-.781.54-1.25.762-2.591 1.224-4.355.937-5.293-.86-.195-.351-.332-.775-.41-1.269zm-.059-2.559c0-1.875.013-3.737.04-5.586-2.709.104-4.551.28-5.528.527-.963.235-1.66.463-2.09.684-.43.221-.768.482-1.015.781-.404.495-.606 1.244-.606 2.246 0 .99.352 1.784 1.055 2.383.703.586 1.712.879 3.027.879 1.862 0 3.568-.638 5.117-1.914zm20.625 12.344c.17.221.254.501.254.84 0 .338-.149.625-.449.859a3.663 3.663 0 0 1-1.094.605c-.82.287-1.608.43-2.363.43-.755 0-1.38-.052-1.875-.156-.495-.104-.905-.287-1.23-.547-.625-.521-.938-1.4-.938-2.637v-24.082c0-1.224-.228-1.985-.684-2.285-.182-.117-.423-.176-.722-.176-.3 0-.541.046-.723.137a2.798 2.798 0 0 1-.43.195c-.104.039-.195.039-.273 0a1.166 1.166 0 0 1-.234-.214c-.196-.235-.293-.456-.293-.665 0-.221.078-.455.234-.703.169-.26.436-.553.801-.879a7.067 7.067 0 0 1 1.25-.918c1.055-.611 2.109-.917 3.164-.917 1.276 0 2.012.957 2.207 2.871 2.044-1.914 4.271-2.871 6.68-2.871 2.656 0 4.83.917 6.523 2.753 1.836 1.98 2.754 4.74 2.754 8.282 0 2.643-.599 5.006-1.797 7.09a11.818 11.818 0 0 1-4.512 4.472c-1.836 1.055-3.789 1.582-5.859 1.582-1.159 0-2.402-.182-3.73-.547v2.715c0 2.11.117 3.405.351 3.887.247.495.495.788.742.879.261.091.554.137.879.137.339 0 .794-.046 1.367-.137zm-3.339-25.196v13.555c1.237 1.055 2.727 1.582 4.472 1.582 2.031 0 3.685-.748 4.961-2.246 1.354-1.601 2.031-3.782 2.031-6.543 0-2.903-.599-5.098-1.797-6.582-1.067-1.341-2.552-2.012-4.453-2.012-1.901 0-3.639.749-5.214 2.246zm20.097 7.383c0-1.575.163-2.975.488-4.199.326-1.224.762-2.318 1.309-3.281.56-.977 1.211-1.83 1.953-2.559a11.794 11.794 0 0 1 2.422-1.816c1.693-.964 3.359-1.445 5-1.445s2.956.292 3.945.878a7.077 7.077 0 0 1 2.422 2.305c1.159 1.836 1.739 4.277 1.739 7.324 0 1.133-.476 1.713-1.426 1.739l-13.633.293c.078 2.825.807 4.915 2.187 6.269 1.172 1.146 2.689 1.719 4.551 1.719 2.774 0 5.026-.58 6.758-1.738.117 0 .26.097.43.293.325.39.488.729.488 1.015 0 .625-.781 1.426-2.344 2.403-1.797 1.119-3.893 1.679-6.289 1.679-3.125 0-5.579-.996-7.363-2.988-1.758-1.953-2.637-4.583-2.637-7.891zm4.336-3.281c3.75-.182 7.181-.423 10.293-.723.143-4.14-1.289-6.211-4.297-6.211-1.679 0-3.053.652-4.121 1.954-.976 1.198-1.601 2.858-1.875 4.98zm32.695-3.086c0-2.005-.833-3.333-2.5-3.984a4.722 4.722 0 0 0-1.738-.313 8.99 8.99 0 0 0-1.719.156c-.52.105-.983.267-1.386.489-.912.495-1.368 1.204-1.368 2.129 0 .885.378 1.653 1.133 2.304.834.69 2.383 1.543 4.649 2.559 2.265 1.003 4.01 2.103 5.234 3.301 1.237 1.185 1.856 2.552 1.856 4.101 0 1.745-.717 3.216-2.149 4.414-1.68 1.394-4.004 2.09-6.973 2.09-3.632 0-6.145-.775-7.539-2.324-.481-.547-.722-1.243-.722-2.09 0-2.044.501-3.236 1.504-3.574.247-.078.481-.117.703-.117.612 0 .944.189.996.566.286 3.255 2.109 4.883 5.469 4.883 2.018 0 3.366-.566 4.043-1.699.221-.365.332-.808.332-1.328 0-.521-.17-.996-.508-1.426-.326-.43-.781-.827-1.367-1.192a14.753 14.753 0 0 0-2.09-1.093l-2.598-1.172c-3.984-1.823-5.976-4.245-5.976-7.266 0-1.953.865-3.515 2.597-4.687 1.641-1.107 3.757-1.66 6.348-1.66 3.516 0 5.703.761 6.562 2.285.222.39.332.82.332 1.289 0 .468-.026.892-.078 1.269a8.979 8.979 0 0 1-.195.996c-.13.573-.28.977-.449 1.211-.339.248-.827.371-1.465.371-.625 0-.938-.162-.938-.488zm15.079 3.555l-.02 5.137c0 2.148.111 3.444.332 3.886.221.43.482.69.781.781.3.079.684.118 1.153.118.468 0 .892-.033 1.269-.098a8.367 8.367 0 0 0 1.094-.293c.338-.117.664-.247.977-.391l.957-.41c.221-.078.468.15.742.684.078.143.117.312.117.508 0 .182-.078.423-.234.722-.157.3-.463.645-.918 1.035a7.677 7.677 0 0 1-1.563 1.016c-1.302.664-2.474.996-3.516.996-1.028 0-1.868-.058-2.519-.176-.651-.117-1.205-.351-1.66-.703-.938-.729-1.406-2.063-1.406-4.004v-15.371h-1.934c-.404 0-.697-.13-.879-.39-.313-.404-.469-.743-.469-1.016 0-.456.111-.71.332-.762 2.071-.351 3.535-1.888 4.395-4.609.247-.82.443-1.79.586-2.91.625-.104 1.093-.156 1.406-.156.326 0 .605.162.84.488.234.325.345.703.332 1.133 0 .429-.007.833-.02 1.211-.013.377-.026.787-.039 1.23l-.078 2.734h6.758c.169.3.254.619.254.957v.606c0 .547-.293.996-.879 1.348a3.838 3.838 0 0 1-1.953.507c-.703 0-1.211-.006-1.524-.019a225.11 225.11 0 0 1-.878-.078l-.86-.117a93.311 93.311 0 0 0-.957-.079v.215l-.019 6.27z" fill="#006341"/></svg>