<svg width="349" height="176" viewBox="0 0 349 176" fill="none" xmlns="http://www.w3.org/2000/svg">
<path d="M66.33 12.0251C67.39 5.50507 71.51 -0.434926 73.33 0.0250738C74.4 0.295074 73.71 2.52507 75.33 6.02507C77.8 11.3551 81.9 11.5551 82.33 15.0251C82.69 17.8751 80.03 18.6751 78.33 23.0251C76.91 26.6451 77.45 29.4251 78.33 36.0251C78.33 36.0251 78.76 39.2351 80.33 54.0251C81.76 67.4851 81.45 72.4251 81.33 74.0251C80.91 79.7351 80.7 82.5851 79.33 86.0251C74.94 97.0251 64.14 101.795 61.33 103.025C55.7054 105.614 49.4902 106.65 43.33 106.025C38.92 105.545 29.73 104.535 24.33 97.0251C18.25 88.5751 21.42 78.0251 22.33 75.0251C24.83 66.7151 30.69 60.6551 31.33 61.0251C31.67 61.2251 30.48 63.2351 29.33 67.0251C27.96 71.5751 25.79 78.7351 28.33 84.0251C30.87 89.3151 36.93 90.8351 41.33 92.0251C43.48 92.6051 58.8 96.5051 68.33 87.0251C71.2587 83.9471 73.3277 80.1539 74.33 76.0251C75.78 71.0251 75.54 67.0251 74.33 58.0251C72.18 42.0251 71.11 34.0251 69.33 28.0251C67.17 20.7451 65.44 17.5351 66.33 12.0251Z" fill="#006341"/>
<path d="M84.33 24.0251C81.24 25.7651 81.47 33.2151 83.33 38.0251C84.1648 40.3159 85.5365 42.3734 87.33 44.0251C91.14 47.4651 94.15 46.4051 99.33 49.0251C102.929 50.9299 106.016 53.674 108.33 57.0251C113.79 64.4251 113.41 72.1151 114.33 72.0251C115.25 71.9351 116.38 64.3451 114.33 56.0251C113.94 54.4351 112.11 47.4551 105.33 39.0251C100.28 32.7351 89.05 21.3751 84.33 24.0251Z" fill="#006341"/>
<path d="M173.33 96.0251C168.719 96.907 164.02 97.2426 159.33 97.0251C153.25 96.7151 150.5 95.6051 149.33 95.0251C146.595 93.7832 144.18 91.9328 142.27 89.6151C139.969 86.5355 138.602 82.8597 138.33 79.0251C136.75 65.0251 136.01 48.0251 135.33 48.0251C134.65 48.0251 135.33 63.1151 127.33 78.0251C125.425 81.6388 123.074 84.9985 120.33 88.0251C116.072 92.6089 110.982 96.3417 105.33 99.0251C100.593 101.396 95.5421 103.079 90.33 104.025C80.81 105.735 69.64 105.105 69.33 103.025C69.07 101.305 76.42 100.025 91.33 93.0251C105.26 86.4451 109.94 82.2951 111.33 81.0251C115.678 76.9362 119.386 72.2168 122.33 67.0251C123.89 64.2951 126.74 58.8651 130.33 44.0251C134.77 25.6751 134.99 15.1451 137.33 15.0251C138.95 14.9451 140.41 19.8751 141.33 23.0251C144.74 34.7351 145 46.5951 145.33 66.0251C145.44 72.2551 145.52 77.6051 149.33 81.0251C152.04 83.4551 155.44 83.8451 158.33 84.0251C172.26 84.8951 192.33 82.1751 192.33 78.0251C192.33 74.6551 179.07 72.3351 177.33 72.0251C173.03 71.2651 169.45 70.6351 165.33 72.0251C159.01 74.1551 155.95 79.5151 155.33 79.0251C154.71 78.5351 157.33 74.1951 160.33 70.0251C165.43 62.9551 167.98 59.4251 172.33 58.0251C176.33 56.7251 179.83 57.8651 186.33 60.0251C192.83 62.1851 193.54 63.7751 203.33 68.0251C206.862 69.7035 210.545 71.0428 214.33 72.0251C223.06 73.9051 227.71 69.8851 229.33 72.0251C231.33 74.6351 227.12 83.4051 220.33 86.0251C219.665 86.2908 218.97 86.4722 218.26 86.5651C215.13 86.962 211.956 86.8301 208.87 86.1751C205.41 85.4051 203.97 86.8751 191.33 91.0251C183.54 93.5851 179.33 94.9451 173.33 96.0251Z" fill="#006341"/>
<path d="M250.33 94.0251C248.77 92.6951 255.33 85.2851 260.33 71.0251C263 63.4351 262.19 62.5551 265.33 54.0251C267.12 49.1751 268.22 42.3451 273.33 37.0251C281.04 29.0251 290.25 18.9151 292.33 20.0251C293.67 20.7351 292.69 23.3251 289.33 40.0251C286.82 52.5151 286.79 53.8351 285.33 58.0251C283.69 62.7051 281.78 68.1751 277.33 74.0251C273.6 78.9151 268.85 82.2851 259.33 89.0251C251.61 94.4851 250.67 94.3151 250.33 94.0251Z" fill="#006341"/>
<path d="M322.33 48.0251C318.38 51.2051 316.08 54.1451 312.33 59.0251C300.85 73.9351 301.33 80.6151 293.33 87.0251C290.58 89.2251 285.16 90.8251 274.33 94.0251C270.73 95.0851 267.46 95.9651 263.51 96.8951C251.1 99.8251 241.68 102.395 230.33 103.025C221.46 103.515 206.14 103.025 207.33 103.025C206.635 104.562 205.61 105.927 204.33 107.025C201.48 109.425 198.33 109.505 198.33 110.025C198.4 111.235 208.33 111.025 208.33 111.025C227.33 109.885 236.33 108.025 236.33 108.025C267.56 101.565 262.71 103.905 272.33 101.025C285.95 96.9451 295.55 92.2851 304.33 88.0251C307.437 86.5593 310.444 84.8889 313.33 83.0251C318.969 79.4896 324.029 75.1047 328.33 70.0251C332.47 65.0251 331.33 64.4151 338.33 52.0251C344.01 42.0251 348.79 35.3551 348.33 35.0251C348.2 34.9351 324.61 45.3351 322.33 48.0251Z" fill="#006341"/>
<path d="M213.33 174.025C212.83 173.465 213.95 172.275 215.33 168.025C216.362 164.775 217.033 161.422 217.33 158.025C218.21 151.255 225.64 134.435 240.33 121.025C251.46 110.865 265.21 104.545 266.33 106.025C266.79 106.635 264.98 108.395 262.33 112.025C257.76 118.295 256.16 122.625 252.33 131.025C246.26 144.325 243.22 151.025 240.33 155.025C230.45 168.865 214.91 175.765 213.33 174.025Z" fill="#006341"/>
<path d="M248.33 152.025C249.05 148.125 251.33 147.645 254.33 141.025C255.607 138.124 256.611 135.112 257.33 132.025C258.16 129.105 263.39 110.785 274.33 108.025C282.99 105.845 291.64 114.365 293.33 116.025C303.51 126.025 302.54 140.025 302.33 143.025C301.647 151.591 298.129 159.684 292.33 166.025C289.51 169.195 285.76 173.405 279.33 175.025C274.667 176.083 269.795 175.735 265.33 174.025C260.618 172.622 256.437 169.835 253.33 166.025C251.76 164.025 247.17 158.335 248.33 152.025Z" fill="#006341"/>
<path d="M319.33 151.025C323.33 151.665 331.94 153.025 338.33 148.025C344.46 143.205 345.03 135.245 345.33 131.025C346.33 116.855 337.33 107.025 336.33 106.025C330.42 99.8151 323.77 97.8951 317.33 96.0251C312.49 94.6251 308.74 93.5951 304.33 95.0251C299.92 96.4551 294.26 100.275 294.33 105.025C294.42 110.915 301.99 111.445 306.33 120.025C312.11 131.455 303.71 141.965 310.33 148.025C312.39 149.915 314.72 150.285 319.33 151.025Z" fill="#006341"/>
<path d="M295.33 146.025C296.9 145.655 296.52 134.795 292.33 125.025C291.33 122.685 287.89 114.655 284.33 115.025C283.593 115.181 282.918 115.548 282.385 116.08C281.852 116.613 281.486 117.288 281.33 118.025C280.79 120.565 283.41 123.085 284.33 124.025C292.55 132.445 293.54 146.445 295.33 146.025Z" fill="white"/>
<path d="M339.33 122.025C341.03 120.805 334.58 111.585 329.33 106.025C322.05 98.3151 318.25 98.8451 317.33 99.0251C317.1 99.0251 314.69 99.5851 314.33 101.025C313.87 102.855 316.84 105.365 318.33 106.025C333.98 113.025 338.85 122.375 339.33 122.025Z" fill="white"/>
<path d="M15.3516 149.44L8.86719 149.226H3.92578C3.2487 149.226 2.68229 149.115 2.22656 148.894C1.77083 148.659 1.54297 148.373 1.54297 148.034C1.54297 147.409 1.64062 146.973 1.83594 146.726C2.27865 146.856 2.7474 146.921 3.24219 146.921C3.73698 146.921 4.14062 146.888 4.45312 146.823C4.77865 146.758 5.0651 146.621 5.3125 146.413C5.88542 145.944 6.17188 145.131 6.17188 143.972V124.069C6.17188 122.858 5.4362 122.103 3.96484 121.804C3.02734 121.608 2.42188 121.4 2.14844 121.179C1.88802 120.944 1.75781 120.69 1.75781 120.417C1.75781 119.818 1.86198 119.414 2.07031 119.206C2.30469 119.271 2.52604 119.304 2.73438 119.304C2.73438 119.304 4.66797 119.304 8.53516 119.304C9.13411 119.304 9.94141 119.271 10.957 119.206C11.9857 119.141 13.4115 119.108 15.2344 119.108C17.0703 119.108 18.7109 119.278 20.1562 119.616C21.6146 119.955 22.8125 120.43 23.75 121.042C25.5469 122.227 26.4453 123.894 26.4453 126.042C26.4453 128.49 25.4167 130.469 23.3594 131.979C22.5911 132.539 21.6081 133.021 20.4102 133.425C24.2513 133.737 26.7188 135.209 27.8125 137.839C28.151 138.685 28.3203 139.694 28.3203 140.866C28.3203 142.025 28.0534 143.151 27.5195 144.245C26.9857 145.326 26.1784 146.25 25.0977 147.019C22.8581 148.633 19.6094 149.44 15.3516 149.44ZM10.7227 132.644L13.6719 132.663C14.2578 132.663 14.9544 132.663 15.7617 132.663C16.582 132.663 17.3828 132.52 18.1641 132.233C18.9453 131.934 19.5964 131.537 20.1172 131.042C21.1849 130.026 21.7188 128.724 21.7188 127.136C21.7188 125.326 21.276 123.998 20.3906 123.151C19.349 122.123 17.5456 121.608 14.9805 121.608C13.2357 121.608 12.1484 121.771 11.7188 122.097C11.3021 122.422 11.0286 122.806 10.8984 123.249C10.7812 123.679 10.7227 124.245 10.7227 124.948V132.644ZM15.4297 135.241C13.3073 135.241 11.7383 135.254 10.7227 135.28V144.538C10.7227 145.853 11.582 146.589 13.3008 146.745C13.8346 146.784 14.5768 146.804 15.5273 146.804C16.4779 146.804 17.474 146.706 18.5156 146.511C19.5573 146.315 20.4557 145.983 21.2109 145.515C22.7865 144.525 23.5742 142.956 23.5742 140.808C23.5742 137.097 20.8594 135.241 15.4297 135.241ZM33.8477 131.862C33.8477 131.12 33.7891 130.528 33.6719 130.085C33.5677 129.629 33.3464 129.401 33.0078 129.401C32.7604 129.401 32.5651 129.427 32.4219 129.479L31.9531 129.675C31.862 129.701 31.7513 129.649 31.6211 129.519C31.3737 129.245 31.25 128.998 31.25 128.776C31.25 128.542 31.3216 128.301 31.4648 128.054C31.6211 127.793 31.849 127.5 32.1484 127.175C32.4609 126.849 32.8125 126.563 33.2031 126.315C34.0885 125.729 34.8893 125.437 35.6055 125.437C36.3216 125.437 36.8294 125.56 37.1289 125.808C37.4284 126.055 37.6562 126.381 37.8125 126.784C38.0729 127.435 38.2031 128.418 38.2031 129.733V141.96C38.2031 144.16 38.8672 145.391 40.1953 145.651C40.599 145.729 41.0742 145.769 41.6211 145.769C42.181 145.769 42.7734 145.697 43.3984 145.554C44.0365 145.41 44.6419 145.222 45.2148 144.987C46.3216 144.532 47.2982 143.952 48.1445 143.249V131.862C48.1445 130.625 47.9232 129.864 47.4805 129.577C47.2982 129.46 47.0573 129.401 46.7578 129.401C46.4583 129.401 46.2174 129.447 46.0352 129.538C45.8659 129.629 45.7227 129.694 45.6055 129.733C45.5013 129.772 45.4102 129.772 45.332 129.733C45.2539 129.681 45.1693 129.61 45.0781 129.519C44.8828 129.297 44.7852 129.076 44.7852 128.854C44.7852 128.633 44.8633 128.399 45.0195 128.151C45.1888 127.891 45.4557 127.598 45.8203 127.272C46.1849 126.934 46.6016 126.628 47.0703 126.354C48.125 125.743 49.1797 125.437 50.2344 125.437C51.5104 125.437 52.2396 126.341 52.4219 128.151C52.474 128.659 52.5 129.187 52.5 129.733V141.296C52.5 143.301 52.5781 144.551 52.7344 145.046C52.8906 145.541 53.0794 145.866 53.3008 146.022C53.5221 146.166 53.7956 146.237 54.1211 146.237C54.4466 146.237 54.7135 146.185 54.9219 146.081L55.5078 145.827C55.6771 145.788 55.8268 145.866 55.957 146.062C56.2305 146.465 56.2695 146.83 56.0742 147.155C55.8789 147.481 55.5729 147.793 55.1562 148.093C54.7526 148.392 54.2969 148.653 53.7891 148.874C51.5365 149.864 49.9349 149.844 48.9844 148.815C48.4896 148.282 48.2096 147.435 48.1445 146.276C46.2305 147.748 44.2708 148.763 42.2656 149.323C41.5365 149.519 40.7682 149.616 39.9609 149.616C39.1667 149.616 38.3854 149.506 37.6172 149.284C36.862 149.063 36.2044 148.705 35.6445 148.21C34.4466 147.155 33.8477 145.528 33.8477 143.327V131.862ZM74.7852 146.804C72.7669 148.692 70.5469 149.636 68.125 149.636C65.4557 149.636 63.2812 148.724 61.6016 146.901C59.7786 144.896 58.8672 142.129 58.8672 138.601C58.8672 134.629 60.1302 131.4 62.6562 128.913C65.013 126.595 67.7995 125.437 71.0156 125.437C72.3047 125.437 73.5417 125.651 74.7266 126.081V120.437C74.7266 119.525 74.6354 118.946 74.4531 118.698C74.1536 118.282 73.6654 118.073 72.9883 118.073C72.7018 118.073 72.4154 118.106 72.1289 118.171C71.8555 118.223 71.6602 118.223 71.543 118.171C71.4388 118.106 71.3542 118.021 71.2891 117.917C71.0286 117.487 71.3542 116.94 72.2656 116.276C73.6979 115.222 75.1107 114.694 76.5039 114.694C77.9753 114.694 78.8151 115.495 79.0234 117.097C79.0755 117.578 79.1016 118.086 79.1016 118.62V141.296C79.1016 143.301 79.1797 144.551 79.3359 145.046C79.4922 145.541 79.6745 145.866 79.8828 146.022C80.1042 146.166 80.3776 146.237 80.7031 146.237C81.0286 146.237 81.2956 146.185 81.5039 146.081L82.0898 145.827C82.2591 145.788 82.4089 145.866 82.5391 146.062C82.8125 146.465 82.8516 146.83 82.6562 147.155C82.4609 147.481 82.168 147.793 81.7773 148.093C81.3867 148.392 80.9505 148.653 80.4688 148.874C78.3594 149.825 76.7839 149.844 75.7422 148.933C75.2344 148.49 74.9154 147.78 74.7852 146.804ZM74.7266 130.046C73.4505 129.069 71.9661 128.581 70.2734 128.581C68.2422 128.581 66.5951 129.33 65.332 130.827C63.9779 132.429 63.3008 134.61 63.3008 137.37C63.3008 141.758 64.5508 144.466 67.0508 145.495C67.832 145.808 68.5872 145.964 69.3164 145.964C70.0586 145.964 70.6771 145.905 71.1719 145.788C71.6667 145.671 72.1289 145.515 72.5586 145.319C73.418 144.929 74.1406 144.453 74.7266 143.894V130.046ZM99.668 146.765C97.7669 148.666 95.4688 149.616 92.7734 149.616C90.6901 149.616 89.0234 149.017 87.7734 147.819C86.5104 146.608 85.8789 145.039 85.8789 143.112C85.8789 140.716 86.9466 138.92 89.082 137.722C91.0091 136.628 93.724 136.081 97.2266 136.081H99.668C99.681 135.586 99.6875 135.104 99.6875 134.636V133.171C99.6875 131.426 99.4336 130.196 98.9258 129.479C98.3529 128.672 97.3763 128.269 95.9961 128.269C92.832 128.269 91.2044 129.401 91.1133 131.667C91.1003 132.019 91.1068 132.312 91.1328 132.546C90.8724 132.754 90.4297 132.858 89.8047 132.858C89.1927 132.858 88.7435 132.787 88.457 132.644C88.1836 132.5 87.9427 132.305 87.7344 132.058C87.2917 131.55 87.0703 130.905 87.0703 130.124C87.0703 129.33 87.2982 128.64 87.7539 128.054C88.2227 127.455 88.8542 126.966 89.6484 126.589C91.1979 125.821 93.0273 125.437 95.1367 125.437C97.2461 125.437 98.8281 125.645 99.8828 126.062C100.951 126.465 101.797 127.006 102.422 127.683C103.529 128.881 104.082 130.489 104.082 132.507L103.887 141.882C103.887 143.588 103.965 144.668 104.121 145.124C104.29 145.58 104.486 145.886 104.707 146.042C104.941 146.198 105.221 146.276 105.547 146.276C105.885 146.276 106.159 146.224 106.367 146.12L106.914 145.866C107.096 145.801 107.253 145.879 107.383 146.101C107.526 146.309 107.598 146.498 107.598 146.667C107.598 146.823 107.526 147.032 107.383 147.292C107.253 147.552 106.999 147.832 106.621 148.132C106.257 148.418 105.84 148.672 105.371 148.894C102.78 150.118 101.016 149.831 100.078 148.034C99.8828 147.683 99.7461 147.259 99.668 146.765ZM99.6094 144.206C99.6094 142.331 99.6224 140.469 99.6484 138.62C96.9401 138.724 95.0977 138.9 94.1211 139.147C93.1576 139.382 92.4609 139.61 92.0312 139.831C91.6016 140.052 91.263 140.313 91.0156 140.612C90.612 141.107 90.4102 141.856 90.4102 142.858C90.4102 143.848 90.7617 144.642 91.4648 145.241C92.168 145.827 93.1771 146.12 94.4922 146.12C96.3542 146.12 98.0599 145.482 99.6094 144.206ZM120.234 156.55C120.404 156.771 120.488 157.051 120.488 157.39C120.488 157.728 120.339 158.015 120.039 158.249C119.74 158.496 119.375 158.698 118.945 158.854C118.125 159.141 117.337 159.284 116.582 159.284C115.827 159.284 115.202 159.232 114.707 159.128C114.212 159.024 113.802 158.841 113.477 158.581C112.852 158.06 112.539 157.181 112.539 155.944V131.862C112.539 130.638 112.311 129.877 111.855 129.577C111.673 129.46 111.432 129.401 111.133 129.401C110.833 129.401 110.592 129.447 110.41 129.538C110.241 129.629 110.098 129.694 109.98 129.733C109.876 129.772 109.785 129.772 109.707 129.733C109.629 129.681 109.551 129.61 109.473 129.519C109.277 129.284 109.18 129.063 109.18 128.854C109.18 128.633 109.258 128.399 109.414 128.151C109.583 127.891 109.85 127.598 110.215 127.272C110.579 126.934 110.996 126.628 111.465 126.354C112.52 125.743 113.574 125.437 114.629 125.437C115.905 125.437 116.641 126.394 116.836 128.308C118.88 126.394 121.107 125.437 123.516 125.437C126.172 125.437 128.346 126.354 130.039 128.19C131.875 130.17 132.793 132.93 132.793 136.472C132.793 139.115 132.194 141.478 130.996 143.562C129.902 145.463 128.398 146.953 126.484 148.034C124.648 149.089 122.695 149.616 120.625 149.616C119.466 149.616 118.223 149.434 116.895 149.069V151.784C116.895 153.894 117.012 155.189 117.246 155.671C117.493 156.166 117.741 156.459 117.988 156.55C118.249 156.641 118.542 156.687 118.867 156.687C119.206 156.687 119.661 156.641 120.234 156.55ZM116.895 131.354V144.909C118.132 145.964 119.622 146.491 121.367 146.491C123.398 146.491 125.052 145.743 126.328 144.245C127.682 142.644 128.359 140.463 128.359 137.702C128.359 134.799 127.76 132.604 126.562 131.12C125.495 129.779 124.01 129.108 122.109 129.108C120.208 129.108 118.47 129.857 116.895 131.354ZM136.992 138.737C136.992 137.162 137.155 135.762 137.48 134.538C137.806 133.314 138.242 132.22 138.789 131.257C139.349 130.28 140 129.427 140.742 128.698C141.497 127.969 142.305 127.364 143.164 126.882C144.857 125.918 146.523 125.437 148.164 125.437C149.805 125.437 151.12 125.729 152.109 126.315C153.099 126.888 153.906 127.657 154.531 128.62C155.69 130.456 156.27 132.897 156.27 135.944C156.27 137.077 155.794 137.657 154.844 137.683L141.211 137.976C141.289 140.801 142.018 142.891 143.398 144.245C144.57 145.391 146.087 145.964 147.949 145.964C150.723 145.964 152.975 145.384 154.707 144.226C154.824 144.226 154.967 144.323 155.137 144.519C155.462 144.909 155.625 145.248 155.625 145.534C155.625 146.159 154.844 146.96 153.281 147.937C151.484 149.056 149.388 149.616 146.992 149.616C143.867 149.616 141.413 148.62 139.629 146.628C137.871 144.675 136.992 142.045 136.992 138.737ZM141.328 135.456C145.078 135.274 148.509 135.033 151.621 134.733C151.764 130.593 150.332 128.522 147.324 128.522C145.645 128.522 144.271 129.174 143.203 130.476C142.227 131.674 141.602 133.334 141.328 135.456ZM174.023 132.37C174.023 130.365 173.19 129.037 171.523 128.386C170.99 128.177 170.41 128.073 169.785 128.073C169.173 128.073 168.6 128.125 168.066 128.229C167.546 128.334 167.083 128.496 166.68 128.718C165.768 129.213 165.312 129.922 165.312 130.847C165.312 131.732 165.69 132.5 166.445 133.151C167.279 133.841 168.828 134.694 171.094 135.71C173.359 136.713 175.104 137.813 176.328 139.011C177.565 140.196 178.184 141.563 178.184 143.112C178.184 144.857 177.467 146.328 176.035 147.526C174.355 148.92 172.031 149.616 169.062 149.616C165.43 149.616 162.917 148.841 161.523 147.292C161.042 146.745 160.801 146.049 160.801 145.202C160.801 143.158 161.302 141.966 162.305 141.628C162.552 141.55 162.786 141.511 163.008 141.511C163.62 141.511 163.952 141.7 164.004 142.077C164.29 145.332 166.113 146.96 169.473 146.96C171.491 146.96 172.839 146.394 173.516 145.261C173.737 144.896 173.848 144.453 173.848 143.933C173.848 143.412 173.678 142.937 173.34 142.507C173.014 142.077 172.559 141.68 171.973 141.315C171.387 140.938 170.69 140.573 169.883 140.222L167.285 139.05C163.301 137.227 161.309 134.805 161.309 131.784C161.309 129.831 162.174 128.269 163.906 127.097C165.547 125.99 167.663 125.437 170.254 125.437C173.77 125.437 175.957 126.198 176.816 127.722C177.038 128.112 177.148 128.542 177.148 129.011C177.148 129.479 177.122 129.903 177.07 130.28C177.018 130.645 176.953 130.977 176.875 131.276C176.745 131.849 176.595 132.253 176.426 132.487C176.087 132.735 175.599 132.858 174.961 132.858C174.336 132.858 174.023 132.696 174.023 132.37ZM189.102 135.925L189.082 141.062C189.082 143.21 189.193 144.506 189.414 144.948C189.635 145.378 189.896 145.638 190.195 145.729C190.495 145.808 190.879 145.847 191.348 145.847C191.816 145.847 192.24 145.814 192.617 145.749C193.008 145.671 193.372 145.573 193.711 145.456C194.049 145.339 194.375 145.209 194.688 145.065L195.645 144.655C195.866 144.577 196.113 144.805 196.387 145.339C196.465 145.482 196.504 145.651 196.504 145.847C196.504 146.029 196.426 146.27 196.27 146.569C196.113 146.869 195.807 147.214 195.352 147.604C194.909 147.982 194.388 148.321 193.789 148.62C192.487 149.284 191.315 149.616 190.273 149.616C189.245 149.616 188.405 149.558 187.754 149.44C187.103 149.323 186.549 149.089 186.094 148.737C185.156 148.008 184.688 146.674 184.688 144.733V129.362H182.754C182.35 129.362 182.057 129.232 181.875 128.972C181.562 128.568 181.406 128.229 181.406 127.956C181.406 127.5 181.517 127.246 181.738 127.194C183.809 126.843 185.273 125.306 186.133 122.585C186.38 121.765 186.576 120.795 186.719 119.675C187.344 119.571 187.812 119.519 188.125 119.519C188.451 119.519 188.73 119.681 188.965 120.007C189.199 120.332 189.31 120.71 189.297 121.14C189.297 121.569 189.29 121.973 189.277 122.351C189.264 122.728 189.251 123.138 189.238 123.581L189.16 126.315H195.918C196.087 126.615 196.172 126.934 196.172 127.272V127.878C196.172 128.425 195.879 128.874 195.293 129.226C194.707 129.564 194.056 129.733 193.34 129.733C192.637 129.733 192.129 129.727 191.816 129.714C191.517 129.688 191.224 129.662 190.938 129.636L190.078 129.519C189.779 129.493 189.46 129.466 189.121 129.44V129.655L189.102 135.925Z" fill="#006341"/>
</svg>
